<?xml version="1.0" standalone="no"?>
<!DOCTYPE svg PUBLIC "-//W3C//DTD SVG 20010904//EN"
 "http://www.w3.org/TR/2001/REC-SVG-20010904/DTD/svg10.dtd">
<svg version="1.0" xmlns="http://www.w3.org/2000/svg"
 width="64.000000pt" height="64.000000pt" viewBox="0 0 64.000000 64.000000"
 preserveAspectRatio="xMidYMid meet">

<g transform="translate(0.000000,64.000000) scale(0.100000,-0.100000)"
fill="#000000" stroke="none">
<path d="M106 559 c-9 -13 -16 -33 -16 -44 0 -11 -10 -25 -22 -30 -23 -10 -23
-14 -26 -199 -2 -130 1 -193 9 -202 9 -11 62 -14 269 -14 207 0 260 3 269 14
8 9 11 72 9 202 -3 185 -3 189 -25 199 -14 6 -23 18 -23 32 0 13 -10 33 -21
44 -19 19 -29 21 -75 15 -30 -3 -72 -14 -95 -23 -38 -15 -43 -15 -76 1 -20 9
-64 20 -98 23 -57 5 -63 4 -79 -18z m169 -30 l30 -14 3 -163 c1 -97 6 -162 12
-162 6 0 10 63 10 160 l0 159 32 17 c18 9 61 19 95 22 l63 5 -2 -184 -3 -184
-30 -3 c-16 -1 -60 -9 -97 -18 -62 -14 -74 -14 -135 0 -38 9 -81 17 -98 18
l-30 3 -3 184 -2 183 62 -4 c35 -2 77 -11 93 -19z m-185 -195 c0 -74 4 -143
10 -153 6 -13 26 -20 67 -25 32 -3 79 -13 104 -20 41 -13 54 -12 125 5 43 10
91 19 106 19 17 0 31 8 38 19 5 11 10 81 10 155 0 84 4 136 10 136 6 0 10 -70
10 -190 l0 -190 -250 0 -250 0 0 190 c0 120 4 190 10 190 6 0 10 -52 10 -136z"/>
</g>
</svg>
